# xmcd
#
# Track frame offsets:
#	150
#	11855
#	28097
#	42517
#	60625
#	77295
#	95280
#	112342
#	134552
#	151772
#	165477
#	181125
#	194995
#	212377
#	228602
#	248615
#
# Disc length: 3501 seconds
#
# Revision: 3
# Processed by: cddbd v1.5.2PL0 Copyright (c) Steve Scherf et al.
# Submitted via: audiograbber 1.83.01
#
DISCID=d50dab10
DTITLE=MH1025 Monster Hits - Male Country (MH)
DYEAR=2008
DGENRE=karaoke
TTITLE0=John Michael Montgomery - Sold ( The Grundy County Auction Incident) (M
TTITLE0=H)
TTITLE1=Garth Brooks - Unanswered Prayers (MH)
TTITLE2=The Kentucky Headhunters - Oh Lonesome Me (MH)
TTITLE3=Brooks and Dunn - Neon Moon (MH)
TTITLE4=Travis Tritt - Anymore (MH)
TTITLE5=Little Texas - God Bless Texas (MH)
TTITLE6=Vince Gill - Tryin' To Get Over You (MH)
TTITLE7=Travis Tritt - Lord Have Mercy On The Workin' Man (MH)
TTITLE8=Joe Diffie - Prop Me Up Beside The Jukebox (If I Die) (MH)
TTITLE9=Toby Kieth - He Aint Worth Missing (MH)
TTITLE10=Garth Brooks - The Thunder Rolls (MH)
TTITLE11=Collin Raye - That's My Story (MH)
TTITLE12=Garty Brooks - The Dance (MH)
TTITLE13=Billy Ray Cyrus - Achy Breaky Heart (MH)
TTITLE14=Garth Brooks - Friends In Low Places (MH)
TTITLE15=Alan Jackson - Dont Rock The Jukebox (MH)
EXTD=MediaType: Karaoke CD+G Producer: Other
EXTT0=
EXTT1=
EXTT2=
EXTT3=
EXTT4=
EXTT5=
EXTT6=
EXTT7=
EXTT8=
EXTT9=
EXTT10=
EXTT11=
EXTT12=
EXTT13=
EXTT14=
EXTT15=
PLAYORDER=
